<svg xmlns="http://www.w3.org/2000/svg" xmlns:xlink="http://www.w3.org/1999/xlink" width="1024" zoomAndPan="magnify" viewBox="0 0 768 767.999994" height="1024" preserveAspectRatio="xMidYMid meet" version="1.0"><defs><clipPath id="9f3945bdea"><path d="M 46.203125 41.027344 L 768 41.027344 L 768 727.277344 L 46.203125 727.277344 Z M 46.203125 41.027344 " clip-rule="nonzero"/></clipPath></defs><g clip-path="url(#9f3945bdea)"><path fill="#ffffff" d="M -361.765625 1214.1875 C -268.601562 879.273438 15.96875 758.378906 15.96875 758.378906 C -188.007812 622.382812 -140.171875 428.480469 -140.171875 428.480469 C -94.84375 488.925781 18.476562 554.402344 18.476562 554.402344 C -170.382812 274.871094 18.476562 40.65625 18.476562 40.65625 C 56.261719 174.144531 214.898438 289.976562 214.898438 289.976562 C 154.476562 156.519531 237.574219 70.878906 237.574219 70.878906 C 237.574219 70.878906 204.84375 164.054688 391.199219 224.5 C 577.527344 284.949219 580.070312 544.347656 620.339844 511.578125 C 660.652344 478.847656 675.757812 418.402344 675.757812 418.402344 C 776.480469 609.820312 713.527344 806.226562 713.527344 806.226562 C 887.285156 879.273438 1003.113281 1012.714844 1003.113281 1012.714844 C 1003.113281 1012.714844 738.710938 932.136719 630.429688 1068.109375 C 522.132812 1204.109375 680.785156 1294.765625 733.695312 1539.023438 C 786.558594 1783.316406 446.582031 1727.898438 446.582031 1727.898438 C 461.699219 1869.832031 592.632812 1921.796875 522.132812 2289.480469 C 451.644531 2657.136719 94.03125 2631.941406 94.03125 2631.941406 C 476.804688 2556.425781 496.9375 2224.003906 401.253906 1876.492188 C 305.554688 1528.96875 441.554688 1330.015625 441.554688 1330.015625 C 387.78125 1531.027344 459.179688 1677.539062 459.179688 1677.539062 C 670.707031 1695.164062 602.726562 1430.742188 514.597656 1211.679688 C 426.449219 992.582031 660.652344 859.105469 660.652344 859.105469 C 99.082031 509.070312 -245.484375 976.53125 -293.773438 1199.082031 C -342.046875 1421.621094 -457.460938 1471.042969 -457.460938 1471.042969 C -340.636719 1484.335938 -210.671875 1413.113281 -210.671875 1413.113281 C -218.21875 1430.742188 -268.601562 1511.34375 -268.601562 1511.34375 C -127.5625 1443.339844 8.421875 1312.390625 8.421875 1312.390625 C 3.371094 1380.371094 -24.320312 1556.648438 -24.320312 1556.648438 C 68.75 1529.242188 167.074219 1488.667969 167.074219 1488.667969 C 91.523438 1586.871094 -152.757812 1677.539062 -152.757812 1677.539062 C -114.976562 1609.558594 -89.792969 1463.507812 -89.792969 1463.507812 C -215.710938 1604.496094 -394.507812 1622.144531 -394.507812 1622.144531 C -354.207031 1591.933594 -336.59375 1511.34375 -336.59375 1511.34375 C -681.585938 1584.363281 -749.578125 1458.445312 -749.578125 1458.445312 C -749.578125 1458.445312 -454.941406 1549.113281 -361.765625 1214.1875 " fill-opacity="1" fill-rule="nonzero"/></g></svg>