<svg xmlns="http://www.w3.org/2000/svg" xmlns:xlink="http://www.w3.org/1999/xlink" width="1024" zoomAndPan="magnify" viewBox="0 0 768 767.999994" height="1024" preserveAspectRatio="xMidYMid meet" version="1.0"><defs><clipPath id="cf20e491e1"><path d="M 0 631 L 454 631 L 454 768 L 0 768 Z M 0 631 " clip-rule="nonzero"/></clipPath><clipPath id="31ecbd08b1"><path d="M -288.179688 742.109375 L 334.191406 526.984375 L 634.089844 1394.613281 L 11.722656 1609.738281 Z M -288.179688 742.109375 " clip-rule="nonzero"/></clipPath><clipPath id="6a60eca27b"><path d="M -288.179688 742.109375 L 334.191406 526.984375 L 655.40625 1456.285156 L 33.039062 1671.410156 Z M -288.179688 742.109375 " clip-rule="nonzero"/></clipPath></defs><g clip-path="url(#cf20e491e1)"><g clip-path="url(#31ecbd08b1)"><g clip-path="url(#6a60eca27b)"><path fill="#ffffff" d="M -6.320312 1111.273438 C -14.347656 980.878906 71.886719 903.003906 71.886719 903.003906 C -17.261719 879.742188 -24.074219 805 -24.074219 805 C -0.554688 820.902344 47.734375 830.246094 47.734375 830.246094 C -53.664062 754.148438 -15.339844 647.773438 -15.339844 647.773438 C 14.46875 690.546875 85.035156 712.214844 85.035156 712.214844 C 47.191406 672.230469 66.191406 631.609375 66.191406 631.609375 C 66.191406 631.609375 66.003906 668.722656 139.613281 667.3125 C 213.214844 665.90625 245.964844 757.730469 256.246094 741.148438 C 266.546875 724.574219 264.488281 701.25 264.488281 701.25 C 323.765625 756.871094 325.519531 834.359375 325.519531 834.359375 C 396.199219 838.972656 453.722656 872.148438 453.722656 872.148438 C 453.722656 872.148438 349.921875 875.988281 328.152344 937.578125 C 306.386719 999.175781 373.867188 1011.898438 422.644531 1092.160156 C 471.414062 1172.4375 343.855469 1194.492188 343.855469 1194.492188 C 366.652344 1243.046875 419.535156 1245.429688 439.636719 1384.679688 C 459.738281 1523.917969 329.625 1558.871094 329.625 1558.871094 C 456.308594 1485.058594 422.648438 1364.515625 346 1252.835938 C 269.34375 1141.148438 293.222656 1053.789062 293.222656 1053.789062 C 298.800781 1131.785156 342.148438 1175.058594 342.148438 1175.058594 C 419.441406 1155.351562 362.835938 1069.777344 304.640625 1002.789062 C 246.433594 935.792969 313.230469 859.632812 313.230469 859.632812 C 70.796875 804.25 5.804688 1012.585938 15.976562 1097.558594 C 26.148438 1182.527344 -8.777344 1214.25 -8.777344 1214.25 C 34.351562 1204.628906 71.765625 1163.378906 71.765625 1163.378906 C 71.25 1170.566406 63.253906 1205.378906 63.253906 1205.378906 C 104.996094 1163.910156 137.21875 1100.703125 137.21875 1100.703125 C 143.773438 1125.46875 155.578125 1191.480469 155.578125 1191.480469 C 185.269531 1170.320312 215.210938 1143.835938 215.210938 1143.835938 C 200.433594 1187.992188 124.800781 1250.1875 124.800781 1250.1875 C 129.875 1221.402344 120.886719 1166.4375 120.886719 1166.4375 C 93.472656 1231.972656 32.136719 1260.191406 32.136719 1260.191406 C 42.742188 1244.511719 39.101562 1213.726562 39.101562 1213.726562 C -74.46875 1282.015625 -114.078125 1245.640625 -114.078125 1245.640625 C -114.078125 1245.640625 1.703125 1241.671875 -6.320312 1111.273438 " fill-opacity="1" fill-rule="nonzero"/></g></g></g></svg>