<svg xmlns="http://www.w3.org/2000/svg" xmlns:xlink="http://www.w3.org/1999/xlink" width="1024" zoomAndPan="magnify" viewBox="0 0 768 767.999994" height="1024" preserveAspectRatio="xMidYMid meet" version="1.0"><defs><clipPath id="f831067080"><path d="M 353 0 L 768 0 L 768 147 L 353 147 Z M 353 0 " clip-rule="nonzero"/></clipPath><clipPath id="44b1865285"><path d="M 173.121094 -616.410156 L 795.492188 -831.535156 L 1095.390625 36.097656 L 473.023438 251.222656 Z M 173.121094 -616.410156 " clip-rule="nonzero"/></clipPath><clipPath id="8c67496f5c"><path d="M 1095.71875 36.21875 L 473.347656 251.34375 L 152.132812 -677.957031 L 774.503906 -893.082031 Z M 1095.71875 36.21875 " clip-rule="nonzero"/></clipPath></defs><g clip-path="url(#f831067080)"><g clip-path="url(#44b1865285)"><g clip-path="url(#8c67496f5c)"><path fill="#ffffff" d="M 813.859375 -332.945312 C 821.886719 -202.550781 735.65625 -124.675781 735.65625 -124.675781 C 824.800781 -101.414062 831.613281 -26.671875 831.613281 -26.671875 C 808.09375 -42.574219 759.804688 -51.917969 759.804688 -51.917969 C 861.203125 24.179688 822.878906 130.554688 822.878906 130.554688 C 793.070312 87.777344 722.503906 66.113281 722.503906 66.113281 C 760.351562 106.097656 741.347656 146.71875 741.347656 146.71875 C 741.347656 146.71875 741.535156 109.605469 667.925781 111.015625 C 594.324219 112.421875 561.574219 20.597656 551.292969 37.179688 C 540.996094 53.753906 543.050781 77.078125 543.050781 77.078125 C 483.773438 21.457031 482.023438 -56.03125 482.023438 -56.03125 C 411.339844 -60.644531 353.816406 -93.820312 353.816406 -93.820312 C 353.816406 -93.820312 457.621094 -97.660156 479.386719 -159.25 C 501.152344 -220.847656 433.671875 -233.570312 384.894531 -313.832031 C 336.125 -394.109375 463.683594 -416.164062 463.683594 -416.164062 C 440.886719 -464.722656 388.003906 -467.101562 367.902344 -606.351562 C 347.800781 -745.589844 477.914062 -780.546875 477.914062 -780.546875 C 351.230469 -706.730469 384.890625 -586.191406 461.539062 -474.507812 C 538.195312 -362.820312 514.316406 -275.460938 514.316406 -275.460938 C 508.738281 -353.457031 465.390625 -396.730469 465.390625 -396.730469 C 388.097656 -377.023438 444.707031 -291.449219 502.898438 -224.460938 C 561.109375 -157.464844 494.3125 -81.304688 494.3125 -81.304688 C 736.742188 -25.921875 801.738281 -234.257812 791.5625 -319.230469 C 781.390625 -404.199219 816.316406 -435.921875 816.316406 -435.921875 C 773.191406 -426.304688 735.773438 -385.050781 735.773438 -385.050781 C 736.289062 -392.238281 744.289062 -427.050781 744.289062 -427.050781 C 702.542969 -385.582031 670.320312 -322.375 670.320312 -322.375 C 663.765625 -347.140625 651.960938 -413.152344 651.960938 -413.152344 C 622.269531 -391.992188 592.328125 -365.507812 592.328125 -365.507812 C 607.105469 -409.664062 682.738281 -471.859375 682.738281 -471.859375 C 677.664062 -443.074219 686.652344 -388.109375 686.652344 -388.109375 C 714.066406 -453.644531 775.40625 -481.863281 775.40625 -481.863281 C 764.800781 -466.183594 768.4375 -435.398438 768.4375 -435.398438 C 882.007812 -503.6875 921.617188 -467.3125 921.617188 -467.3125 C 921.617188 -467.3125 805.835938 -463.34375 813.859375 -332.945312 " fill-opacity="1" fill-rule="nonzero"/></g></g></g></svg>