<svg version="1.2" xmlns="http://www.w3.org/2000/svg" viewBox="0 0 373 198" width="373" height="198"><defs><clipPath clipPathUnits="userSpaceOnUse" id="cp1"><path d="m373 1.33v196h-553.33v-196z"/></clipPath><clipPath clipPathUnits="userSpaceOnUse" id="cp2"><path d="m-420.17-820.55l829.83-286.83 399.86 1156.84-829.82 286.84z"/></clipPath><clipPath clipPathUnits="userSpaceOnUse" id="cp3"><path d="m809.96 49.63l-829.83 286.83-428.29-1239.07 829.83-286.83z"/></clipPath></defs><style>.a{fill:#fff}</style><g clip-path="url(#cp1)"><g clip-path="url(#cp2)"><g clip-path="url(#cp3)"><path class="a" d="m434.1-442.6c10.7 173.9-104.2 277.7-104.2 277.7 118.8 31 127.9 130.7 127.9 130.7-31.3-21.2-95.7-33.7-95.7-33.7 135.2 101.5 84.1 243.3 84.1 243.3-39.8-57-133.9-85.9-133.9-85.9 50.5 53.3 25.2 107.5 25.2 107.5 0 0 0.2-49.5-97.9-47.6-98.2 1.8-141.8-120.6-155.5-98.5-13.8 22.1-11 53.2-11 53.2-79.1-74.2-81.4-177.5-81.4-177.5-94.2-6.1-170.9-50.4-170.9-50.4 0 0 138.4-5.1 167.4-87.2 29-82.1-61-99.1-126-206.1-65-107 105-136.5 105-136.5-30.4-64.7-100.9-67.9-127.7-253.5-26.8-185.7 146.7-232.3 146.7-232.3-168.9 98.4-124 259.1-21.8 408.1 102.2 148.9 70.4 265.4 70.4 265.4-7.5-104-65.3-161.7-65.3-161.7-103 26.2-27.6 140.3 50 229.7 77.6 89.3-11.4 190.8-11.4 190.8 323.2 73.9 409.9-203.9 396.3-317.2-13.5-113.3 33-155.6 33-155.6-57.5 12.8-107.4 67.8-107.4 67.8 0.7-9.6 11.4-56 11.4-56-55.7 55.3-98.6 139.6-98.6 139.6-8.8-33-24.5-121-24.5-121-39.6 28.2-79.5 63.5-79.5 63.5 19.7-58.9 120.5-141.8 120.5-141.8-6.7 38.4 5.2 111.7 5.2 111.7 36.6-87.4 118.4-125.1 118.4-125.1-14.2 21-9.3 62-9.3 62 151.4-91 204.2-42.5 204.2-42.5 0 0-154.4 5.2-143.7 179.1z"/></g></g></g></svg>