<svg version="1.2" xmlns="http://www.w3.org/2000/svg" viewBox="0 0 419 184" width="419" height="184"><defs><clipPath clipPathUnits="userSpaceOnUse" id="cp1"><path d="m605.33 1.67v182.66h-605.33v-182.66z"/></clipPath><clipPath clipPathUnits="userSpaceOnUse" id="cp2"><path d="m-384.24 149.81l829.83-286.83 399.86 1156.84-829.82 286.83z"/></clipPath><clipPath clipPathUnits="userSpaceOnUse" id="cp3"><path d="m-384.24 149.81l829.83-286.83 428.28 1239.07-829.82 286.83z"/></clipPath></defs><style>.a{fill:#fff}</style><g clip-path="url(#cp1)"><g clip-path="url(#cp2)"><g clip-path="url(#cp3)"><path class="a" d="m-8.4 642c-10.7-173.8 104.2-277.7 104.2-277.7-118.8-31-127.9-130.6-127.9-130.6 31.4 21.2 95.7 33.6 95.7 33.6-135.2-101.4-84.1-243.3-84.1-243.3 39.8 57.1 133.9 86 133.9 86-50.5-53.4-25.1-107.5-25.1-107.5 0 0-0.3 49.5 97.9 47.6 98.1-1.9 141.8 120.5 155.5 98.4 13.7-22.1 11-53.2 11-53.2 79 74.2 81.3 177.5 81.3 177.5 94.3 6.2 171 50.4 171 50.4 0 0-138.4 5.1-167.5 87.2-29 82.2 61 99.1 126 206.1 65.1 107.1-105 136.5-105 136.5 30.4 64.7 100.9 67.9 127.7 253.6 26.8 185.6-146.7 232.2-146.7 232.2 168.9-98.4 124-259.1 21.8-408-102.2-148.9-70.3-265.4-70.3-265.4 7.4 104 65.2 161.7 65.2 161.7 103.1-26.3 27.6-140.4-50-229.7-77.6-89.3 11.4-190.9 11.4-190.9-323.2-73.8-409.9 203.9-396.3 317.2 13.6 113.3-33 155.6-33 155.6 57.5-12.8 107.4-67.8 107.4-67.8-0.7 9.6-11.4 56-11.4 56 55.7-55.3 98.7-139.6 98.7-139.6 8.7 33.1 24.4 121.1 24.4 121.1 39.6-28.2 79.5-63.6 79.5-63.6-19.7 58.9-120.5 141.8-120.5 141.8 6.8-38.3-5.2-111.6-5.2-111.6-36.6 87.4-118.4 125-118.4 125 14.2-20.9 9.3-62 9.3-62-151.4 91.1-204.2 42.6-204.2 42.6 0 0 154.4-5.3 143.7-179.2z"/></g></g></g></svg>