<svg xmlns="http://www.w3.org/2000/svg" xmlns:xlink="http://www.w3.org/1999/xlink" width="1024" zoomAndPan="magnify" viewBox="0 0 768 767.999994" height="1024" preserveAspectRatio="xMidYMid meet" version="1.0"><defs><clipPath id="b4bb037fff"><path d="M 0 58.492188 L 741.644531 58.492188 L 741.644531 767.992188 L 0 767.992188 Z M 0 58.492188 " clip-rule="nonzero"/></clipPath></defs><g clip-path="url(#b4bb037fff)"><path fill="#ffffff" d="M 1163.039062 -444.125 C 1066.804688 -98.175781 772.859375 26.699219 772.859375 26.699219 C 983.558594 167.175781 934.148438 367.464844 934.148438 367.464844 C 887.324219 305.027344 770.269531 237.398438 770.269531 237.398438 C 965.351562 526.136719 770.269531 768.066406 770.269531 768.066406 C 731.242188 630.179688 567.378906 510.535156 567.378906 510.535156 C 629.792969 648.382812 543.957031 736.847656 543.957031 736.847656 C 543.957031 736.847656 577.765625 640.601562 385.269531 578.164062 C 192.800781 515.726562 190.175781 247.78125 148.582031 281.628906 C 106.941406 315.4375 91.339844 377.875 91.339844 377.875 C -12.703125 180.152344 52.324219 -22.726562 52.324219 -22.726562 C -127.15625 -98.175781 -246.800781 -236.015625 -246.800781 -236.015625 C -246.800781 -236.015625 26.308594 -152.78125 138.160156 -293.234375 C 250.023438 -433.714844 86.144531 -527.359375 31.492188 -779.664062 C -23.113281 -1032.003906 328.0625 -974.757812 328.0625 -974.757812 C 312.449219 -1121.371094 177.199219 -1175.046875 250.023438 -1554.839844 C 322.832031 -1934.609375 692.230469 -1908.582031 692.230469 -1908.582031 C 296.84375 -1830.578125 276.046875 -1487.210938 374.886719 -1128.25 C 473.734375 -769.277344 333.257812 -563.769531 333.257812 -563.769531 C 388.800781 -771.402344 315.050781 -922.742188 315.050781 -922.742188 C 96.554688 -940.949219 166.777344 -667.8125 257.804688 -441.535156 C 348.859375 -215.21875 106.941406 -77.34375 106.941406 -77.34375 C 687.011719 284.21875 1042.929688 -198.640625 1092.804688 -428.523438 C 1142.671875 -658.390625 1261.886719 -709.441406 1261.886719 -709.441406 C 1141.214844 -723.175781 1006.96875 -649.605469 1006.96875 -649.605469 C 1014.765625 -667.8125 1066.804688 -751.070312 1066.804688 -751.070312 C 921.121094 -680.824219 780.65625 -545.5625 780.65625 -545.5625 C 785.871094 -615.785156 814.476562 -797.867188 814.476562 -797.867188 C 718.339844 -769.558594 616.777344 -727.648438 616.777344 -727.648438 C 694.820312 -829.085938 947.148438 -922.742188 947.148438 -922.742188 C 908.121094 -852.523438 882.105469 -701.65625 882.105469 -701.65625 C 1012.175781 -847.292969 1196.859375 -865.523438 1196.859375 -865.523438 C 1155.230469 -834.316406 1137.039062 -751.070312 1137.039062 -751.070312 C 1493.394531 -826.496094 1563.628906 -696.429688 1563.628906 -696.429688 C 1563.628906 -696.429688 1259.285156 -790.085938 1163.039062 -444.125 " fill-opacity="1" fill-rule="nonzero"/></g></svg>