<svg xmlns="http://www.w3.org/2000/svg" xmlns:xlink="http://www.w3.org/1999/xlink" width="1024" zoomAndPan="magnify" viewBox="0 0 768 767.999994" height="1024" preserveAspectRatio="xMidYMid meet" version="1.0"><defs><clipPath id="9e3c1dd08c"><path d="M 0.00390625 81.746094 L 768 81.746094 L 768 767.996094 L 0.00390625 767.996094 Z M 0.00390625 81.746094 " clip-rule="nonzero"/></clipPath></defs><g clip-path="url(#9e3c1dd08c)"><path fill="#ffffff" d="M -407.964844 1254.902344 C -314.800781 919.988281 -30.230469 799.097656 -30.230469 799.097656 C -234.207031 663.097656 -186.371094 469.195312 -186.371094 469.195312 C -141.042969 529.644531 -27.722656 595.117188 -27.722656 595.117188 C -216.582031 315.585938 -27.722656 81.371094 -27.722656 81.371094 C 10.0625 214.863281 168.699219 330.691406 168.699219 330.691406 C 108.277344 197.238281 191.375 111.59375 191.375 111.59375 C 191.375 111.59375 158.644531 204.773438 345 265.21875 C 531.328125 325.664062 533.871094 585.0625 574.140625 552.296875 C 614.453125 519.566406 629.558594 459.117188 629.558594 459.117188 C 730.28125 650.535156 667.328125 846.945312 667.328125 846.945312 C 841.085938 919.988281 956.914062 1053.433594 956.914062 1053.433594 C 956.914062 1053.433594 692.511719 972.851562 584.230469 1108.828125 C 475.933594 1244.824219 634.585938 1335.484375 687.496094 1579.738281 C 740.359375 1824.03125 400.382812 1768.613281 400.382812 1768.613281 C 415.5 1910.550781 546.433594 1962.515625 475.933594 2330.195312 C 405.445312 2697.851562 47.832031 2672.65625 47.832031 2672.65625 C 430.605469 2597.140625 450.738281 2264.722656 355.054688 1917.210938 C 259.355469 1569.683594 395.355469 1370.734375 395.355469 1370.734375 C 341.582031 1571.742188 412.980469 1718.257812 412.980469 1718.257812 C 624.507812 1735.882812 556.527344 1471.457031 468.398438 1252.394531 C 380.25 1033.296875 614.453125 899.820312 614.453125 899.820312 C 52.882812 549.789062 -291.683594 1017.246094 -339.972656 1239.796875 C -388.246094 1462.335938 -503.660156 1511.757812 -503.660156 1511.757812 C -386.835938 1525.054688 -256.871094 1453.832031 -256.871094 1453.832031 C -264.417969 1471.457031 -314.800781 1552.058594 -314.800781 1552.058594 C -173.761719 1484.054688 -37.777344 1353.109375 -37.777344 1353.109375 C -42.828125 1421.089844 -70.519531 1597.363281 -70.519531 1597.363281 C 22.550781 1569.957031 120.875 1529.382812 120.875 1529.382812 C 45.324219 1627.589844 -198.957031 1718.257812 -198.957031 1718.257812 C -161.175781 1650.277344 -135.992188 1504.222656 -135.992188 1504.222656 C -261.910156 1645.214844 -440.707031 1662.863281 -440.707031 1662.863281 C -400.40625 1632.652344 -382.792969 1552.058594 -382.792969 1552.058594 C -727.785156 1625.082031 -795.777344 1499.160156 -795.777344 1499.160156 C -795.777344 1499.160156 -501.140625 1589.828125 -407.964844 1254.902344 " fill-opacity="1" fill-rule="nonzero"/></g></svg>