<svg xmlns="http://www.w3.org/2000/svg" xmlns:xlink="http://www.w3.org/1999/xlink" width="1024" zoomAndPan="magnify" viewBox="0 0 768 767.999994" height="1024" preserveAspectRatio="xMidYMid meet" version="1.0"><defs><clipPath id="eafbafc980"><path d="M 0 0 L 768 0 L 768 709.171875 L 0 709.171875 Z M 0 0 " clip-rule="nonzero"/></clipPath></defs><g clip-path="url(#eafbafc980)"><path fill="#ffffff" d="M 1189.394531 -502.941406 C 1093.160156 -156.992188 799.214844 -32.117188 799.214844 -32.117188 C 1009.914062 108.359375 960.503906 308.648438 960.503906 308.648438 C 913.679688 246.210938 796.625 178.578125 796.625 178.578125 C 991.710938 467.320312 796.625 709.25 796.625 709.25 C 757.597656 571.363281 593.734375 451.714844 593.734375 451.714844 C 656.148438 589.566406 570.3125 678.03125 570.3125 678.03125 C 570.3125 678.03125 604.121094 581.785156 411.625 519.347656 C 219.15625 456.910156 216.53125 188.964844 174.9375 222.8125 C 133.296875 256.621094 117.695312 319.058594 117.695312 319.058594 C 13.652344 121.335938 78.679688 -81.542969 78.679688 -81.542969 C -100.800781 -156.992188 -220.445312 -294.832031 -220.445312 -294.832031 C -220.445312 -294.832031 52.667969 -211.597656 164.515625 -352.054688 C 276.378906 -492.53125 112.5 -586.175781 57.847656 -838.480469 C 3.242188 -1090.820312 354.417969 -1033.574219 354.417969 -1033.574219 C 338.804688 -1180.1875 203.554688 -1233.863281 276.378906 -1613.65625 C 349.191406 -1993.425781 718.585938 -1967.398438 718.585938 -1967.398438 C 323.199219 -1889.394531 302.402344 -1546.027344 401.242188 -1187.066406 C 500.089844 -828.09375 359.613281 -622.585938 359.613281 -622.585938 C 415.15625 -830.21875 341.40625 -981.558594 341.40625 -981.558594 C 122.910156 -999.765625 193.132812 -726.628906 284.160156 -500.351562 C 375.214844 -274.035156 133.296875 -136.160156 133.296875 -136.160156 C 713.367188 225.402344 1069.285156 -257.457031 1119.164062 -487.339844 C 1169.027344 -717.207031 1288.246094 -768.257812 1288.246094 -768.257812 C 1167.574219 -781.992188 1033.324219 -708.421875 1033.324219 -708.421875 C 1041.121094 -726.628906 1093.160156 -809.886719 1093.160156 -809.886719 C 947.476562 -739.640625 807.011719 -604.382812 807.011719 -604.382812 C 812.230469 -674.601562 840.832031 -856.683594 840.832031 -856.683594 C 744.695312 -828.375 643.132812 -786.464844 643.132812 -786.464844 C 721.175781 -887.902344 973.503906 -981.558594 973.503906 -981.558594 C 934.476562 -911.339844 908.464844 -760.476562 908.464844 -760.476562 C 1038.53125 -906.109375 1223.214844 -924.339844 1223.214844 -924.339844 C 1181.585938 -893.132812 1163.394531 -809.886719 1163.394531 -809.886719 C 1519.75 -885.3125 1589.984375 -755.246094 1589.984375 -755.246094 C 1589.984375 -755.246094 1285.640625 -848.902344 1189.394531 -502.941406 " fill-opacity="1" fill-rule="nonzero"/></g></svg>