<?xml version="1.0" standalone="no"?>
<!DOCTYPE svg PUBLIC "-//W3C//DTD SVG 20010904//EN"
 "http://www.w3.org/TR/2001/REC-SVG-20010904/DTD/svg10.dtd">
<svg version="1.0" xmlns="http://www.w3.org/2000/svg"
 width="1024.000000pt" height="1024.000000pt" viewBox="0 0 1024.000000 1024.000000"
 preserveAspectRatio="xMidYMid meet">
<metadata>
Created by potrace 1.16, written by Peter Selinger 2001-2019
</metadata>
<g transform="translate(0.000000,1024.000000) scale(0.100000,-0.100000)"
fill="#000000" stroke="none">
<path d="M4106 9951 c-11 -17 2 -177 18 -232 28 -92 88 -200 146 -261 19 -21
40 -30 90 -37 36 -6 80 -11 98 -11 l34 0 -61 46 c-121 91 -196 197 -244 346
-14 43 -34 90 -45 105 -10 16 -21 35 -24 43 -3 11 -6 11 -12 1z"/>
<path d="M5945 9783 c14 -39 27 -122 29 -191 1 -39 5 -72 9 -72 4 0 11 0 16 0
18 0 31 64 31 149 l0 86 -33 23 c-40 27 -62 29 -52 5z"/>
<path d="M3453 9508 c3 -73 10 -149 15 -168 5 -19 15 -60 21 -90 69 -313 262
-615 511 -801 36 -27 74 -56 85 -65 11 -8 42 -27 68 -40 44 -23 57 -24 165
-22 l117 3 -79 38 c-384 183 -644 469 -771 850 -32 95 -75 304 -75 363 0 23
-34 64 -53 64 -6 0 -8 -50 -4 -132z"/>
<path d="M7705 8747 c-188 -92 -310 -175 -424 -288 -50 -50 -126 -149 -148
-194 l-14 -30 23 30 c40 53 151 160 215 208 54 40 189 127 198 127 2 0 29 15
62 33 52 30 234 106 291 122 31 9 20 21 -27 29 -22 3 -45 8 -53 11 -8 3 -63
-19 -123 -48z"/>
<path d="M6655 8653 c-113 -6 -320 -34 -459 -64 -486 -102 -882 -340 -1144
-687 -62 -82 -146 -212 -140 -217 2 -2 27 33 57 77 103 152 295 336 466 447
69 45 251 140 310 161 11 4 31 12 45 18 14 6 66 25 117 41 83 27 139 42 269
71 70 16 324 48 426 54 l97 5 -20 -47 c-30 -69 -69 -206 -84 -297 -21 -119
-13 -330 14 -425 24 -81 88 -219 112 -240 3 -3 13 -16 22 -30 10 -14 38 -46
63 -72 44 -46 56 -56 139 -118 22 -16 45 -33 50 -37 6 -5 30 -21 55 -38 25
-16 47 -32 50 -35 3 -3 48 -37 100 -75 90 -67 111 -84 244 -199 187 -161 353
-366 407 -504 19 -45 23 -77 24 -153 0 -96 0 -97 17 -70 73 110 59 267 -40
429 -124 205 -373 438 -781 730 -90 64 -186 141 -213 171 -143 157 -205 309
-215 527 -8 176 19 333 86 508 29 75 29 76 8 74 -12 -1 -49 -3 -82 -5z"/>
<path d="M3760 8213 c68 -128 168 -244 285 -332 78 -59 263 -152 340 -171 115
-28 184 -40 260 -46 44 -3 85 -7 92 -9 7 -2 25 21 42 50 l29 55 -56 0 c-123 1
-302 39 -428 91 -163 68 -324 194 -437 343 -47 62 -58 71 -102 83 -28 7 -54
13 -58 13 -5 0 10 -35 33 -77z"/>
<path d="M5882 8050 c-51 -82 -35 -185 40 -257 41 -40 76 -53 138 -53 75 0
146 44 181 112 25 49 24 56 -3 32 -72 -63 -191 -59 -266 10 -35 31 -54 74 -61
136 l-7 55 -22 -35z"/>
<path d="M4680 7538 c-71 -151 -125 -292 -150 -388 -5 -19 -17 -69 -28 -110
-17 -66 -26 -112 -47 -235 -49 -289 -20 -709 67 -985 81 -259 116 -460 103
-605 -8 -93 -32 -205 -61 -277 -31 -79 -15 -65 29 25 61 125 79 203 84 374 6
179 -7 275 -68 478 -80 266 -107 423 -116 666 -14 392 52 711 233 1127 8 17
12 32 9 32 -4 0 -28 -46 -55 -102z"/>
<path d="M6964 6809 c7 -83 31 -207 50 -264 7 -22 18 -58 25 -80 37 -119 118
-303 190 -429 50 -87 197 -301 236 -342 5 -6 30 -35 55 -65 62 -74 261 -273
340 -339 67 -57 379 -365 441 -435 108 -124 224 -278 286 -380 114 -187 193
-375 232 -553 15 -68 19 -75 49 -87 l32 -14 0 40 c0 61 -36 226 -71 326 -131
375 -412 746 -893 1182 -292 264 -415 403 -577 648 -87 131 -205 370 -254 513
-19 58 -42 119 -49 135 -8 17 -31 72 -51 123 -20 50 -40 92 -42 92 -3 0 -3
-32 1 -71z"/>
<path d="M8185 6184 c-101 -101 -232 -197 -363 -264 l-64 -33 25 -25 25 -24
118 78 c131 87 268 215 328 307 21 32 37 59 35 60 -2 1 -49 -43 -104 -99z"/>
<path d="M5730 6088 c-13 -57 -21 -84 -70 -248 -68 -223 -153 -444 -221 -573
-17 -32 -29 -60 -27 -63 7 -6 101 178 151 296 54 130 124 325 173 488 33 110
35 125 22 139 -14 13 -17 9 -28 -39z"/>
<path d="M5791 5543 c-11 -66 -11 -71 19 -153 68 -183 121 -351 135 -429 26
-133 24 -132 76 -59 78 111 194 298 186 298 -3 0 -29 -39 -60 -87 -30 -49 -70
-108 -88 -132 l-32 -45 -22 110 c-13 60 -37 154 -55 209 -44 137 -130 355
-139 355 -4 0 -13 -30 -20 -67z"/>
<path d="M5115 4953 c-343 -330 -671 -514 -945 -530 -68 -4 -109 -12 -145 -28
-27 -13 -58 -26 -67 -29 -32 -10 -19 -24 34 -36 62 -15 204 -7 275 15 26 8 64
20 83 26 54 17 197 88 281 140 91 55 263 186 335 254 61 57 188 170 195 173 9
4 32 -78 49 -171 12 -65 9 -162 -6 -200 -40 -105 283 264 345 393 l12 25 -18
-23 c-108 -139 -139 -177 -197 -239 -38 -40 -71 -73 -76 -73 -4 0 -3 24 2 53
12 62 -3 184 -33 282 -11 36 -21 65 -22 65 -1 -1 -47 -44 -102 -97z"/>
</g>
</svg>
